<svg xmlns="http://www.w3.org/2000/svg" viewBox="0 0 100 100" width="100" height="100">
  <defs>
    <radialGradient id="bg" cx="35%" cy="35%" r="80%">
      <stop offset="0%" stop-color="#0A36F6"/>
      <stop offset="60%" stop-color="#050D35"/>
      <stop offset="100%" stop-color="#00051B"/>
    </radialGradient>
  </defs>
  <rect width="100" height="100" rx="22" fill="url(#bg)"/>
  <g transform="translate(6 6) scale(0.88)" stroke="#FFFFFF" stroke-width="11" stroke-linecap="round" fill="none">
    <path d="M 81.95 38.37 A 34 34 0 0 1 81.95 61.63"/>
    <path d="M 76.04 71.86 A 34 34 0 0 1 55.90 83.48"/>
    <path d="M 44.10 83.48 A 34 34 0 0 1 23.96 71.86"/>
    <path d="M 18.05 61.63 A 34 34 0 0 1 18.05 38.37"/>
    <path d="M 23.96 28.14 A 34 34 0 0 1 44.10 16.52"/>
    <path d="M 55.90 16.52 A 34 34 0 0 1 76.04 28.14"/>
  </g>
  <circle cx="50" cy="50" r="9" fill="#76DFFF"/>
</svg>
